#format: frame checksums
#version: 2
#hash: MD5
#tb 0: 1/8000
#media_type 0: audio
#codec_id 0: pcm_s16le
#sample_rate 0: 8000
#channel_layout_name 0: mono
#stream#, dts,        pts, duration,     size, hash
0,          0,          0,     6552,    13104, 6fe3f75df1262c5f956887de9c32df40
0,       6552,       6552,     6552,    13104, f955518de6f61f94253280d11d64d68b
0,      13104,      13104,     6552,    13104, a3f2db5d35e0d923787b71aa352466de
0,      19656,      19656,     6552,    13104, 90c41dc1338579e2e19edb811f8d58a9
0,      26208,      26208,     6552,    13104, 4fbcd13f77e8cc0e61a7c9010e42adf1
0,      32760,      32760,     6552,    13104, 82ef661e2afc2a1d6996005f17c1618c
0,      39312,      39312,     6552,    13104, 1f5e9875ddcf88063e4adf910a8f0fa6
0,      45864,      45864,     2136,     4272, 9a1cdf7ec6b06762047cdb1320d9d32e
